<?xml version="1.0" encoding="iso-8859-1"?>
<!-- Uploaded to: SVG Repo, www.svgrepo.com, Generator: SVG Repo Mixer Tools -->
<svg version="1.1" id="Layer_1" xmlns="http://www.w3.org/2000/svg" xmlns:xlink="http://www.w3.org/1999/xlink" 
	 viewBox="0 0 512 512" xml:space="preserve">
<polygon style="fill:#ABECEC;" points="220.596,250.553 220.596,337.702 166.128,337.702 133.447,294.128 166.128,250.553 "/>
<polygon style="fill:#D5F6F5;" points="166.128,250.553 166.128,337.702 62.638,337.702 8.17,294.128 62.638,250.553 "/>
<polygon style="fill:#ABECEC;" points="449.362,130.723 416.681,130.723 416.681,217.872 449.362,217.872 503.83,174.298 "/>
<polygon style="fill:#D5F6F5;" points="291.404,130.723 416.681,130.723 471.149,174.298 416.681,217.872 291.404,217.872 "/>
<polygon style="fill:#ABECEC;" points="220.596,130.723 220.596,217.872 166.128,217.872 133.447,174.298 166.128,130.723 "/>
<polygon style="fill:#D5F6F5;" points="166.128,130.723 166.128,217.872 62.638,217.872 8.17,174.298 62.638,130.723 "/>
<polygon style="fill:#4D4D4D;" points="256,431.736 283.8,453.523 256,503.83 "/>
<polygon style="fill:#737373;" points="228.199,453.523 248.059,431.736 267.918,453.523 256,503.83 "/>
<polygon style="fill:#FFC1A6;" points="267.918,378.553 313.191,400.34 283.8,453.523 267.918,453.523 "/>
<polygon style="fill:#FFDBCC;" points="280.511,400.34 267.918,453.523 228.199,453.523 198.809,400.34 239.66,378.553 "/>
<path style="fill:#FE5F1A;" d="M280.511,119.83l32.681-21.787V65.362c0-31.581-25.611-57.191-57.191-57.191L280.511,119.83z"/>
<path style="fill:#FE834D;" d="M198.809,65.362c0-31.591,25.6-57.191,57.191-57.191c13.541,0,24.511,25.611,24.511,57.191v54.468
	l-81.397-21.787h-0.305V65.362z"/>
<polygon style="fill:#FEDC3D;" points="258.723,108.936 313.191,130.723 313.191,400.34 280.511,400.34 "/>
<polygon style="fill:#FFE777;" points="234.213,108.936 280.511,130.723 280.511,400.34 256,400.34 "/>
<polygon style="fill:#FFF1B1;" points="199.114,130.723 256,108.936 256,400.34 198.809,400.34 198.809,130.723 "/>
<polygon style="fill:#B9B9B9;" points="280.511,130.723 313.191,130.723 313.191,98.043 280.511,98.043 258.723,114.383 "/>
<rect x="198.809" y="98.043" style="fill:#DCDCDC;" width="81.702" height="32.681"/>
<path d="M508.933,167.919l-54.468-43.574c-1.449-1.158-3.248-1.791-5.104-1.791h-128V65.361c0-17.458-6.799-33.873-19.144-46.217
	C289.871,6.798,273.458-0.001,256,0c-36.04,0-65.362,29.321-65.362,65.362v57.191h-128c-1.855,0-3.655,0.632-5.104,1.791
	L3.067,167.919C1.129,169.468,0,171.816,0,174.298s1.129,4.83,3.067,6.379l54.468,43.574c1.449,1.158,3.248,1.791,5.104,1.791
	h103.489c4.512,0,8.17-3.657,8.17-8.17s-3.658-8.17-8.17-8.17H65.504l-44.255-35.404l44.255-35.404h125.134v103.489h-128
	c-1.855,0-3.655,0.632-5.104,1.791L3.067,287.748C1.129,289.297,0,291.646,0,294.128c0,2.482,1.129,4.83,3.067,6.379l54.468,43.574
	c1.449,1.158,3.248,1.791,5.104,1.791h128v54.468c0,1.382,0.351,2.742,1.02,3.952l29.352,53.113
	c0.015,0.027,27.84,50.376,27.84,50.376c1.438,2.603,4.177,4.218,7.151,4.218c2.974,0,5.713-1.616,7.151-4.218l27.819-50.339
	c0.025-0.045,29.372-53.15,29.372-53.15c0.669-1.21,1.02-2.57,1.02-3.952V226.043h128c1.855,0,3.655-0.632,5.104-1.791
	l54.468-43.574c1.938-1.55,3.067-3.898,3.067-6.379S510.871,169.468,508.933,167.919z M256,16.34
	c13.094,0,25.404,5.099,34.662,14.358s14.359,21.568,14.359,34.662v24.512h-98.043V65.362C206.979,38.331,228.97,16.34,256,16.34z
	 M206.979,106.213h98.043v16.34h-98.043V106.213z M247.83,138.894v174.298c0,4.513,3.658,8.17,8.17,8.17s8.17-3.657,8.17-8.17
	V138.894h40.851V392.17H264.17v-46.298c0-4.513-3.658-8.17-8.17-8.17s-8.17,3.657-8.17,8.17v46.298h-40.851V138.894H247.83z
	 M278.982,445.352h-45.963l-20.36-36.841h86.683L278.982,445.352z M65.504,329.532l-44.255-35.404l44.255-35.404h125.134v70.809
	H65.504z M256,486.938l-13.951-25.246h27.903L256,486.938z M446.496,209.702H321.362v-70.809h125.134l44.255,35.404L446.496,209.702
	z"/>
</svg>